<svg id="Layer_1" data-name="Layer 1" xmlns="http://www.w3.org/2000/svg" viewBox="0 0 340 100"><defs><style>.cls-1{fill:#fff;}.cls-2{fill:#2b2f7d;stroke:#fff;stroke-miterlimit:10;}.cls-3{fill:#ff0;}</style></defs><title>EU</title><path class="cls-1" d="M150.82,50.15a3.92,3.92,0,0,0,1.77,1.46,6.94,6.94,0,0,0,2.79.49,5.62,5.62,0,0,0,2.36-.48,3.65,3.65,0,0,0,1.61-1.35,3.28,3.28,0,0,0,.56-1.84,3.05,3.05,0,0,0-.51-1.75,3.64,3.64,0,0,0-1.58-1.25,15.59,15.59,0,0,0-2.71-.78,6.36,6.36,0,0,1-2.45-.88,1.39,1.39,0,0,1-.48-1.09,1.62,1.62,0,0,1,.67-1.3,3.45,3.45,0,0,1,2.15-.54,3.29,3.29,0,0,1,2.14.6,2.49,2.49,0,0,1,.85,1.75l1.56-.11a3.71,3.71,0,0,0-.61-1.94,3.39,3.39,0,0,0-1.6-1.29,6.21,6.21,0,0,0-2.41-.44,5.85,5.85,0,0,0-2.25.42,3.33,3.33,0,0,0-1.54,1.22,3.14,3.14,0,0,0-.52,1.74,2.78,2.78,0,0,0,.43,1.53,3.22,3.22,0,0,0,1.31,1.14,11.06,11.06,0,0,0,2.36.77,20.92,20.92,0,0,1,2.19.6,2.4,2.4,0,0,1,1.1.72,1.56,1.56,0,0,1,.34,1,1.77,1.77,0,0,1-.35,1,2.29,2.29,0,0,1-1.06.76,4.58,4.58,0,0,1-1.64.27,4.7,4.7,0,0,1-1.88-.36,2.74,2.74,0,0,1-1.24-1,3.37,3.37,0,0,1-.5-1.51l-1.53.14a4.07,4.07,0,0,0,.67,2.2Zm18.29,1.74V43h-1.5v4.76a4.86,4.86,0,0,1-.25,1.74,1.89,1.89,0,0,1-.84,1,2.49,2.49,0,0,1-1.27.34,1.84,1.84,0,0,1-1.14-.34,1.5,1.5,0,0,1-.6-.93,7.79,7.79,0,0,1-.1-1.59V43h-1.5v5.51a7.92,7.92,0,0,0,.09,1.41,2.8,2.8,0,0,0,.46,1.11,2.36,2.36,0,0,0,1,.76,3.58,3.58,0,0,0,1.47.3,3.26,3.26,0,0,0,2.82-1.51v1.31Zm4.22,0V44.17h1.74V43h-1.74v-.82a1.59,1.59,0,0,1,.29-1.1,1.34,1.34,0,0,1,1-.29,5.76,5.76,0,0,1,.89.08l.22-1.31a7.35,7.35,0,0,0-1.4-.15,2.78,2.78,0,0,0-1.54.36,2,2,0,0,0-.77.95,4.37,4.37,0,0,0-.16,1.34V43H170.5v1.17h1.33v7.72Zm4.42-10.54V39.62h-1.5v1.73Zm0,10.54V43h-1.5v8.89Zm3.8,0V47a3,3,0,0,1,.7-2.32,2.43,2.43,0,0,1,1.66-.61,2,2,0,0,1,1.05.27,1.44,1.44,0,0,1,.63.73,4.23,4.23,0,0,1,.17,1.37v5.41h1.51V46.42a9.44,9.44,0,0,0-.08-1.46,2.94,2.94,0,0,0-.47-1.11,2.29,2.29,0,0,0-1-.76,3.76,3.76,0,0,0-1.48-.29,3.21,3.21,0,0,0-2.83,1.46V43h-1.35v8.89Zm14.13,0h1.58a3.54,3.54,0,0,1-.39-1.07,22.62,22.62,0,0,1-.09-2.65v-2a8.3,8.3,0,0,0-.08-1.39,2.28,2.28,0,0,0-.47-1,2.43,2.43,0,0,0-1-.67,5.32,5.32,0,0,0-1.85-.27,5.91,5.91,0,0,0-2,.31A2.91,2.91,0,0,0,190,44a3.59,3.59,0,0,0-.66,1.53l1.47.2a2.27,2.27,0,0,1,.75-1.32,2.65,2.65,0,0,1,1.57-.37,2.54,2.54,0,0,1,1.72.51,1.68,1.68,0,0,1,.42,1.3v.39a14.46,14.46,0,0,1-2.69.52,11.9,11.9,0,0,0-1.34.22,4,4,0,0,0-1.09.5,2.37,2.37,0,0,0-.77.86,2.43,2.43,0,0,0-.3,1.2,2.36,2.36,0,0,0,.79,1.83,3.25,3.25,0,0,0,2.25.71,4.79,4.79,0,0,0,1.66-.29,5.59,5.59,0,0,0,1.61-1,3.47,3.47,0,0,0,.3,1.1ZM195.26,48a3.65,3.65,0,0,1-.25,1.51,2.31,2.31,0,0,1-1,1,3.18,3.18,0,0,1-1.55.38,2,2,0,0,1-1.34-.4,1.29,1.29,0,0,1-.45-1,1.26,1.26,0,0,1,.21-.71,1.25,1.25,0,0,1,.59-.49,5.82,5.82,0,0,1,1.31-.3,11.51,11.51,0,0,0,2.47-.57V48Zm5.36,3.91V47a3,3,0,0,1,.7-2.32,2.43,2.43,0,0,1,1.66-.61,2,2,0,0,1,1.05.27,1.44,1.44,0,0,1,.63.73,4.23,4.23,0,0,1,.17,1.37v5.41h1.51V46.42a8,8,0,0,0-.09-1.46,2.93,2.93,0,0,0-.46-1.11,2.29,2.29,0,0,0-1-.76,3.79,3.79,0,0,0-1.48-.29,3.21,3.21,0,0,0-2.83,1.46V43h-1.36v8.89Zm13.08-1.58a2.13,2.13,0,0,1-1.49.54,2.25,2.25,0,0,1-1.79-.81,4,4,0,0,1-.68-2.6,3.82,3.82,0,0,1,.71-2.58A2.32,2.32,0,0,1,212.3,44a1.91,1.91,0,0,1,1.28.45,2.39,2.39,0,0,1,.74,1.35l1.47-.23a3.41,3.41,0,0,0-1.18-2.08,3.7,3.7,0,0,0-2.37-.73,4.29,4.29,0,0,0-2.12.54A3.35,3.35,0,0,0,208.66,45a6.33,6.33,0,0,0-.47,2.52,4.85,4.85,0,0,0,1.11,3.42,3.82,3.82,0,0,0,2.93,1.19,3.67,3.67,0,0,0,2.46-.86,3.88,3.88,0,0,0,1.24-2.4l-1.48-.2a2.75,2.75,0,0,1-.75,1.68Zm5-9V39.62h-1.5v1.73Zm0,10.54V43h-1.5v8.89Zm3.79,0V47.24a5.76,5.76,0,0,1,.25-1.76,1.64,1.64,0,0,1,.56-.83,1.48,1.48,0,0,1,.89-.29,2.2,2.2,0,0,1,1.1.32l.52-1.39a2.88,2.88,0,0,0-1.55-.49,1.65,1.65,0,0,0-1,.3,3.53,3.53,0,0,0-1,1.25V43H221v8.89Zm10.32,0h1.57a3.51,3.51,0,0,1-.38-1.07,22.62,22.62,0,0,1-.09-2.65v-2a8.3,8.3,0,0,0-.08-1.39,2.1,2.1,0,0,0-1.52-1.7,5.26,5.26,0,0,0-1.84-.27,5.91,5.91,0,0,0-2,.31,2.86,2.86,0,0,0-1.33.9,3.59,3.59,0,0,0-.66,1.53l1.47.2a2.27,2.27,0,0,1,.75-1.32,2.65,2.65,0,0,1,1.57-.37,2.5,2.5,0,0,1,1.71.51,1.64,1.64,0,0,1,.43,1.3s0,.18,0,.39a14.11,14.11,0,0,1-2.69.52,12,12,0,0,0-1.33.22,3.75,3.75,0,0,0-1.09.5,2.49,2.49,0,0,0-.78.86,2.53,2.53,0,0,0-.29,1.2,2.38,2.38,0,0,0,.78,1.83,3.28,3.28,0,0,0,2.25.71,4.8,4.8,0,0,0,1.67-.29,5.72,5.72,0,0,0,1.61-1,3,3,0,0,0,.3,1.1ZM232.41,48a3.67,3.67,0,0,1-.24,1.51,2.28,2.28,0,0,1-1,1,3.15,3.15,0,0,1-1.55.38,1.94,1.94,0,0,1-1.33-.4,1.3,1.3,0,0,1-.46-1,1.29,1.29,0,0,1,.81-1.2A5.68,5.68,0,0,1,230,48a11.55,11.55,0,0,0,2.46-.57V48Zm18,3.91V50.44h-7.54V46.27h6.79V44.83h-6.79V41.07h7.25V39.62h-8.87V51.89Zm9.22,0V43h-1.51v4.76a4.89,4.89,0,0,1-.24,1.74,2,2,0,0,1-.84,1,2.5,2.5,0,0,1-1.28.34,1.81,1.81,0,0,1-1.13-.34,1.55,1.55,0,0,1-.61-.93,8.93,8.93,0,0,1-.09-1.59V43h-1.51v5.51a6.89,6.89,0,0,0,.1,1.41A2.8,2.8,0,0,0,253,51a2.39,2.39,0,0,0,1,.76,3.65,3.65,0,0,0,1.47.3,3.24,3.24,0,0,0,2.82-1.51v1.31Zm3.85,0V47.24a6.08,6.08,0,0,1,.25-1.76,1.64,1.64,0,0,1,.56-.83,1.5,1.5,0,0,1,.89-.29,2.24,2.24,0,0,1,1.11.32l.51-1.39a2.87,2.87,0,0,0-1.54-.49,1.66,1.66,0,0,0-1,.3,3.78,3.78,0,0,0-1,1.25V43H262v8.89Zm4.81-1a4,4,0,0,0,3,1.2,4.43,4.43,0,0,0,2.15-.54A3.66,3.66,0,0,0,275,50a5.81,5.81,0,0,0,.52-2.7A4.56,4.56,0,0,0,274.31,44a4,4,0,0,0-3-1.2,4.15,4.15,0,0,0-2.8,1,4.59,4.59,0,0,0-1.37,3.66,4.74,4.74,0,0,0,1.15,3.44Zm1.14-6a2.41,2.41,0,0,1,1.88-.84,2.37,2.37,0,0,1,1.86.85,3.66,3.66,0,0,1,.75,2.5,3.86,3.86,0,0,1-.75,2.6,2.34,2.34,0,0,1-1.86.85,2.38,2.38,0,0,1-1.88-.85,3.8,3.8,0,0,1-.74-2.55,3.83,3.83,0,0,1,.74-2.56Zm9.31,10.41V51a3.22,3.22,0,0,0,1,.8,2.76,2.76,0,0,0,1.36.32,3.63,3.63,0,0,0,2-.58,3.7,3.7,0,0,0,1.42-1.67,5.91,5.91,0,0,0,.49-2.46,6.13,6.13,0,0,0-.44-2.34,3.63,3.63,0,0,0-1.32-1.65,3.51,3.51,0,0,0-2-.59,3,3,0,0,0-1.49.34,3.37,3.37,0,0,0-1.09,1V43h-1.38V55.3Zm.6-10.42a2.16,2.16,0,0,1,1.7-.9,2.08,2.08,0,0,1,1.67.85,3.89,3.89,0,0,1,.7,2.54,4.05,4.05,0,0,1-.71,2.63,2.17,2.17,0,0,1-1.72.85A2.14,2.14,0,0,1,279.3,50a3.86,3.86,0,0,1-.69-2.53,4.05,4.05,0,0,1,.74-2.62Zm8,6.49a4.15,4.15,0,0,0,2.64.72,4.65,4.65,0,0,0,1.87-.36,2.92,2.92,0,0,0,1.27-1,2.58,2.58,0,0,0,.44-1.42,2.12,2.12,0,0,0-1.35-2.08,18.14,18.14,0,0,0-2.23-.7c-.74-.2-1.18-.33-1.33-.39a1.24,1.24,0,0,1-.58-.4.78.78,0,0,1-.19-.52,1,1,0,0,1,.45-.81,2.44,2.44,0,0,1,1.48-.34,2.18,2.18,0,0,1,1.36.38,1.65,1.65,0,0,1,.58,1.08l1.47-.21a3,3,0,0,0-.52-1.37,2.46,2.46,0,0,0-1.16-.82,5.18,5.18,0,0,0-1.84-.3,4.54,4.54,0,0,0-1.3.18,3.08,3.08,0,0,0-1,.44,2.39,2.39,0,0,0-.74.84,2.33,2.33,0,0,0-.27,1.1,2.22,2.22,0,0,0,.33,1.19,2.19,2.19,0,0,0,1,.85,14.63,14.63,0,0,0,2.3.72,7,7,0,0,1,1.54.51.94.94,0,0,1,.44.81,1.27,1.27,0,0,1-.5,1,2.38,2.38,0,0,1-1.54.42,2.51,2.51,0,0,1-1.61-.47,2.08,2.08,0,0,1-.69-1.38l-1.49.24a3.29,3.29,0,0,0,1.16,2.13Zm9.52.52V48.37l1.07-1,2.94,4.54h1.85L299,46.3l3.4-3.3h-1.95l-3.57,3.62v-7h-1.5V51.89Zm13.16,0h1.58a3.27,3.27,0,0,1-.38-1.07,19.76,19.76,0,0,1-.1-2.65v-2a8.3,8.3,0,0,0-.08-1.39,2.27,2.27,0,0,0-.46-1,2.54,2.54,0,0,0-1.05-.67,5.28,5.28,0,0,0-1.85-.27,6,6,0,0,0-2,.31,2.91,2.91,0,0,0-1.33.9,3.59,3.59,0,0,0-.66,1.53l1.47.2a2.32,2.32,0,0,1,.75-1.32,2.65,2.65,0,0,1,1.57-.37,2.54,2.54,0,0,1,1.72.51,1.68,1.68,0,0,1,.42,1.3v.39a14.28,14.28,0,0,1-2.69.52,12.32,12.32,0,0,0-1.34.22,3.82,3.82,0,0,0-1.08.5,2.49,2.49,0,0,0-.78.86,2.43,2.43,0,0,0-.3,1.2,2.36,2.36,0,0,0,.79,1.83,3.25,3.25,0,0,0,2.25.71,4.79,4.79,0,0,0,1.66-.29,5.59,5.59,0,0,0,1.61-1,3.47,3.47,0,0,0,.3,1.1ZM309.6,48a3.49,3.49,0,0,1-.25,1.51,2.31,2.31,0,0,1-1,1,3.15,3.15,0,0,1-1.55.38,2,2,0,0,1-1.34-.4,1.29,1.29,0,0,1-.45-1,1.26,1.26,0,0,1,.21-.71,1.25,1.25,0,0,1,.59-.49,6,6,0,0,1,1.32-.3,11.55,11.55,0,0,0,2.46-.57V48Z"/><path class="cls-1" d="M157.68,71.6V62.72h-1.51v4.76a4.79,4.79,0,0,1-.24,1.73,2,2,0,0,1-.85,1,2.48,2.48,0,0,1-1.27.35,1.86,1.86,0,0,1-1.14-.34,1.65,1.65,0,0,1-.6-.93,9.08,9.08,0,0,1-.09-1.59V62.72h-1.51v5.5a7.92,7.92,0,0,0,.09,1.41,2.92,2.92,0,0,0,.47,1.12,2.45,2.45,0,0,0,1,.75,3.49,3.49,0,0,0,1.47.31,3.26,3.26,0,0,0,2.82-1.51v1.3Zm3.87,0V66.75a3,3,0,0,1,.7-2.32,2.42,2.42,0,0,1,1.66-.61,2,2,0,0,1,1.05.27,1.46,1.46,0,0,1,.62.73,4,4,0,0,1,.18,1.38v5.4h1.5V66.14a8.36,8.36,0,0,0-.08-1.47,2.94,2.94,0,0,0-.47-1.11,2.39,2.39,0,0,0-1-.76,3.74,3.74,0,0,0-1.47-.29A3.18,3.18,0,0,0,161.4,64V62.72H160V71.6Zm9.54-10.53V59.33h-1.51v1.74Zm0,10.53V62.72h-1.51V71.6Zm3.79-10.52V59.33h-1.51v1.75Zm-2.23,14.13a2,2,0,0,0,1.8-.83,4.37,4.37,0,0,0,.43-2.29V62.72h-1.51v9.34a3.12,3.12,0,0,1-.22,1.52.79.79,0,0,1-.69.31,3,3,0,0,1-.71-.12l-.28,1.28a4.2,4.2,0,0,0,1.18.16Zm10.64-3.61h1.58a3.21,3.21,0,0,1-.38-1.06,19.94,19.94,0,0,1-.1-2.66v-2a7.39,7.39,0,0,0-.08-1.39,2.28,2.28,0,0,0-.46-1,2.55,2.55,0,0,0-1-.68,5.28,5.28,0,0,0-1.85-.27,6,6,0,0,0-2,.32,3,3,0,0,0-1.33.89,3.59,3.59,0,0,0-.66,1.53l1.47.2a2.38,2.38,0,0,1,.75-1.32,2.73,2.73,0,0,1,1.57-.37,2.54,2.54,0,0,1,1.72.51,1.69,1.69,0,0,1,.43,1.3c0,.06,0,.19,0,.39a13.51,13.51,0,0,1-2.69.52,9.91,9.91,0,0,0-1.34.23,3.54,3.54,0,0,0-1.08.49,2.52,2.52,0,0,0-.78.87,2.42,2.42,0,0,0-.3,1.19,2.36,2.36,0,0,0,.79,1.83,3.2,3.2,0,0,0,2.25.72,4.57,4.57,0,0,0,1.66-.3,5.54,5.54,0,0,0,1.61-1,3.41,3.41,0,0,0,.3,1.09Zm-.42-3.9a3.47,3.47,0,0,1-.25,1.5,2.31,2.31,0,0,1-1,1,3.05,3.05,0,0,1-1.55.39,2,2,0,0,1-1.34-.41,1.27,1.27,0,0,1-.45-1,1.32,1.32,0,0,1,.21-.72,1.37,1.37,0,0,1,.59-.49,6,6,0,0,1,1.32-.3,10.43,10.43,0,0,0,2.46-.57v.56Zm15.79,3.9V62.72h-1.5v4.76a4.76,4.76,0,0,1-.25,1.73,2,2,0,0,1-.84,1,2.51,2.51,0,0,1-1.28.35,1.81,1.81,0,0,1-1.13-.34,1.61,1.61,0,0,1-.61-.93,9.08,9.08,0,0,1-.09-1.59V62.72h-1.51v5.5a7.7,7.7,0,0,0,.1,1.41,2.91,2.91,0,0,0,.46,1.12,2.45,2.45,0,0,0,1,.75,3.49,3.49,0,0,0,1.47.31,3.26,3.26,0,0,0,2.82-1.51v1.3Zm7.72-1a4,4,0,0,0,3,1.2,4.41,4.41,0,0,0,2.15-.55,3.57,3.57,0,0,0,1.5-1.53,5.9,5.9,0,0,0,.51-2.7,4.53,4.53,0,0,0-1.16-3.31,4,4,0,0,0-3-1.21,4.11,4.11,0,0,0-2.79,1,4.57,4.57,0,0,0-1.38,3.66,4.78,4.78,0,0,0,1.16,3.45Zm1.14-6a2.48,2.48,0,0,1,3.74,0,3.73,3.73,0,0,1,.74,2.5,3.84,3.84,0,0,1-.74,2.6,2.47,2.47,0,0,1-3.74,0,3.78,3.78,0,0,1-.75-2.56,3.73,3.73,0,0,1,.75-2.55Zm9.31,7V68.08l1.07-1,2.94,4.54h1.85L219,66l3.4-3.29H220.4l-3.57,3.61v-7h-1.5V71.6Zm10.94,0,3.36-8.88h-1.55l-2,5.42c-.24.66-.43,1.22-.56,1.69-.18-.62-.37-1.22-.57-1.79l-1.91-5.32H223l3.38,8.88ZM234,61.07V59.33h-1.51v1.74Zm0,10.53V62.72h-1.51V71.6Zm3.78,0V67a5.8,5.8,0,0,1,.25-1.76,1.61,1.61,0,0,1,.56-.82,1.43,1.43,0,0,1,.89-.3,2.1,2.1,0,0,1,1.1.33l.52-1.4a3,3,0,0,0-1.54-.49,1.6,1.6,0,0,0-1,.31,3.72,3.72,0,0,0-1,1.24V62.72h-1.36V71.6Zm11.39,0V62.72h-1.5v4.76a4.76,4.76,0,0,1-.25,1.73,2,2,0,0,1-.84,1,2.51,2.51,0,0,1-1.27.35,1.82,1.82,0,0,1-1.14-.34,1.61,1.61,0,0,1-.61-.93,9.08,9.08,0,0,1-.09-1.59V62.72H242v5.5a7.92,7.92,0,0,0,.09,1.41,2.91,2.91,0,0,0,.46,1.12,2.43,2.43,0,0,0,1,.75,3.42,3.42,0,0,0,1.46.31,3.29,3.29,0,0,0,2.83-1.51v1.3ZM257.78,75V70.68a3,3,0,0,0,1,.81,2.86,2.86,0,0,0,1.35.32,3.65,3.65,0,0,0,2-.59,3.6,3.6,0,0,0,1.42-1.67,6.43,6.43,0,0,0,.05-4.8,3.61,3.61,0,0,0-1.31-1.65,3.52,3.52,0,0,0-2-.59,3.05,3.05,0,0,0-1.48.34,3.41,3.41,0,0,0-1.1,1V62.72h-1.37V75Zm.6-10.42a2.17,2.17,0,0,1,1.7-.9,2.11,2.11,0,0,1,1.67.85,3.89,3.89,0,0,1,.7,2.54,4,4,0,0,1-.71,2.64,2.2,2.2,0,0,1-1.72.85,2.14,2.14,0,0,1-1.68-.82,3.85,3.85,0,0,1-.7-2.54,4.07,4.07,0,0,1,.74-2.62Zm8.92,7V67a5.8,5.8,0,0,1,.25-1.76,1.61,1.61,0,0,1,.56-.82,1.43,1.43,0,0,1,.89-.3,2.1,2.1,0,0,1,1.1.33l.52-1.4a3,3,0,0,0-1.55-.49,1.6,1.6,0,0,0-1,.31,3.72,3.72,0,0,0-1,1.24V62.72h-1.36V71.6Zm4.81-1a4,4,0,0,0,3,1.2,4.37,4.37,0,0,0,2.14-.55,3.57,3.57,0,0,0,1.5-1.53,5.76,5.76,0,0,0,.52-2.7,4.53,4.53,0,0,0-1.17-3.31,3.94,3.94,0,0,0-3-1.21,4.15,4.15,0,0,0-2.8,1A4.59,4.59,0,0,0,271,67.16a4.78,4.78,0,0,0,1.15,3.45Zm1.14-6a2.48,2.48,0,0,1,3.74,0,3.68,3.68,0,0,1,.75,2.5,3.84,3.84,0,0,1-.75,2.6,2.37,2.37,0,0,1-1.86.86,2.41,2.41,0,0,1-1.88-.85,3.78,3.78,0,0,1-.74-2.56,3.73,3.73,0,0,1,.74-2.55Zm8.47,9.89a4.32,4.32,0,0,0,2.57.71,4.58,4.58,0,0,0,2.26-.5,3.06,3.06,0,0,0,1.34-1.37,7.34,7.34,0,0,0,.42-2.94V62.72h-1.39v1.07a3.19,3.19,0,0,0-2.59-1.28,3.52,3.52,0,0,0-3.39,2.25,5.87,5.87,0,0,0-.46,2.35,5.08,5.08,0,0,0,1,3.17,3.37,3.37,0,0,0,2.84,1.32,3.09,3.09,0,0,0,2.46-1.16,9.81,9.81,0,0,1-.11,1.93,2,2,0,0,1-.77,1.18,2.69,2.69,0,0,1-1.62.42,2.52,2.52,0,0,1-1.53-.42,1.4,1.4,0,0,1-.51-1l-1.46-.22a2.42,2.42,0,0,0,.94,2.16Zm1-9.92a2.16,2.16,0,0,1,1.7-.82,2.24,2.24,0,0,1,1.75.83,3.65,3.65,0,0,1,.72,2.46,3.73,3.73,0,0,1-.7,2.51,2.24,2.24,0,0,1-1.74.8,2.19,2.19,0,0,1-1.74-.81A3.85,3.85,0,0,1,282,67a3.6,3.6,0,0,1,.71-2.42Zm9.35,7V67a5.8,5.8,0,0,1,.25-1.76,1.61,1.61,0,0,1,.56-.82,1.43,1.43,0,0,1,.89-.3,2.15,2.15,0,0,1,1.1.33l.52-1.4a3,3,0,0,0-1.55-.49,1.65,1.65,0,0,0-1,.31,3.59,3.59,0,0,0-.95,1.24V62.72h-1.36V71.6Zm10.32,0H304a3.21,3.21,0,0,1-.38-1.06,22,22,0,0,1-.1-2.66v-2a8.73,8.73,0,0,0-.07-1.39,2.13,2.13,0,0,0-1.52-1.7,5.28,5.28,0,0,0-1.85-.27,5.89,5.89,0,0,0-2,.32,2.92,2.92,0,0,0-1.33.89,3.72,3.72,0,0,0-.67,1.53l1.48.2a2.27,2.27,0,0,1,.75-1.32,2.71,2.71,0,0,1,1.57-.37,2.5,2.5,0,0,1,1.71.51,1.65,1.65,0,0,1,.43,1.3c0,.06,0,.19,0,.39a13.36,13.36,0,0,1-2.69.52,10.21,10.21,0,0,0-1.34.23,3.54,3.54,0,0,0-1.08.49,2.52,2.52,0,0,0-.78.87,2.41,2.41,0,0,0-.29,1.19,2.38,2.38,0,0,0,.78,1.83,3.24,3.24,0,0,0,2.25.72,4.59,4.59,0,0,0,1.67-.3,5.67,5.67,0,0,0,1.61-1,3,3,0,0,0,.3,1.09ZM302,67.7a3.65,3.65,0,0,1-.24,1.5,2.33,2.33,0,0,1-1,1,3.05,3.05,0,0,1-1.55.39,1.94,1.94,0,0,1-1.33-.41,1.25,1.25,0,0,1-.46-1,1.32,1.32,0,0,1,.21-.72,1.4,1.4,0,0,1,.6-.49,5.68,5.68,0,0,1,1.31-.3,10.43,10.43,0,0,0,2.46-.57v.56Zm5.37,3.9V67a5.58,5.58,0,0,1,.24-1.86,1.91,1.91,0,0,1,.78-1,2.21,2.21,0,0,1,1.18-.33,1.39,1.39,0,0,1,1.2.5,2.53,2.53,0,0,1,.37,1.51V71.6h1.51V66.44a2.72,2.72,0,0,1,.62-2,2.11,2.11,0,0,1,1.55-.62,1.69,1.69,0,0,1,.91.24,1.27,1.27,0,0,1,.53.64,4.05,4.05,0,0,1,.15,1.3v5.6h1.5V65.5a3.1,3.1,0,0,0-.72-2.25,2.69,2.69,0,0,0-2-.74,3.2,3.2,0,0,0-2.75,1.56,2.22,2.22,0,0,0-.89-1.15,3,3,0,0,0-1.62-.41,3.17,3.17,0,0,0-1.58.4A3.29,3.29,0,0,0,307.18,64V62.72h-1.35V71.6Zm18.87,0h1.58a3.48,3.48,0,0,1-.39-1.06,22.84,22.84,0,0,1-.09-2.66v-2a8.39,8.39,0,0,0-.08-1.39,2.29,2.29,0,0,0-.47-1,2.44,2.44,0,0,0-1-.68,5.32,5.32,0,0,0-1.85-.27,5.91,5.91,0,0,0-2,.32,3,3,0,0,0-1.33.89,3.59,3.59,0,0,0-.66,1.53l1.47.2a2.27,2.27,0,0,1,.75-1.32,2.73,2.73,0,0,1,1.57-.37,2.54,2.54,0,0,1,1.72.51,1.69,1.69,0,0,1,.42,1.3V66a13.67,13.67,0,0,1-2.69.52,9.63,9.63,0,0,0-1.34.23,3.71,3.71,0,0,0-1.09.49,2.53,2.53,0,0,0-1.07,2.06,2.36,2.36,0,0,0,.79,1.83,3.2,3.2,0,0,0,2.25.72,4.57,4.57,0,0,0,1.66-.3,5.54,5.54,0,0,0,1.61-1,3.41,3.41,0,0,0,.3,1.09Zm-.42-3.9a3.63,3.63,0,0,1-.25,1.5,2.31,2.31,0,0,1-1,1,3.08,3.08,0,0,1-1.55.39,2,2,0,0,1-1.34-.41,1.27,1.27,0,0,1-.45-1,1.32,1.32,0,0,1,.21-.72A1.37,1.37,0,0,1,322,68a5.82,5.82,0,0,1,1.31-.3,10.41,10.41,0,0,0,2.47-.57v.56Z"/><path class="cls-1" d="M159.89,91.32V89.87h-7.53V85.69h6.78V84.25h-6.78V80.5h7.24V79.05h-8.87V91.32Zm9.22,0V82.43h-1.5v4.76a4.86,4.86,0,0,1-.25,1.74,1.93,1.93,0,0,1-.84.95,2.49,2.49,0,0,1-1.27.34,1.84,1.84,0,0,1-1.14-.34,1.5,1.5,0,0,1-.6-.93,7.79,7.79,0,0,1-.1-1.59V82.43h-1.5v5.51a7.71,7.71,0,0,0,.09,1.4,2.84,2.84,0,0,0,.46,1.12,2.36,2.36,0,0,0,1,.76,3.58,3.58,0,0,0,1.47.3A3.26,3.26,0,0,0,167.77,90v1.31Zm3.85,0V86.67a5.75,5.75,0,0,1,.26-1.76,1.58,1.58,0,0,1,.56-.83,1.39,1.39,0,0,1,.88-.29,2.14,2.14,0,0,1,1.11.32l.52-1.4a3,3,0,0,0-1.55-.48,1.71,1.71,0,0,0-1,.3,3.78,3.78,0,0,0-1,1.25V82.43h-1.35v8.89Zm4.81-1a4,4,0,0,0,3,1.2,4.4,4.4,0,0,0,2.15-.54,3.81,3.81,0,0,0,1.5-1.53,6,6,0,0,0,.51-2.7,4.6,4.6,0,0,0-1.16-3.32,4,4,0,0,0-3-1.2,4.11,4.11,0,0,0-2.79,1,4.56,4.56,0,0,0-1.38,3.65,4.81,4.81,0,0,0,1.15,3.45Zm1.15-6a2.48,2.48,0,0,1,3.73,0,3.63,3.63,0,0,1,.75,2.49,3.93,3.93,0,0,1-.74,2.61,2.48,2.48,0,0,1-3.74,0,4.73,4.73,0,0,1,0-5.11Zm9.3,10.41V90.4a3.14,3.14,0,0,0,1,.8,2.86,2.86,0,0,0,1.35.32,3.61,3.61,0,0,0,2-.58A3.76,3.76,0,0,0,194,89.26a6.47,6.47,0,0,0,0-4.79,3.63,3.63,0,0,0-1.31-1.66,3.51,3.51,0,0,0-2-.58,3,3,0,0,0-1.48.34,3.26,3.26,0,0,0-1.1,1V82.43h-1.37v12.3Zm.6-10.42a2.18,2.18,0,0,1,1.71-.9,2.13,2.13,0,0,1,1.67.84,5.14,5.14,0,0,1,0,5.18,2.17,2.17,0,0,1-1.72.85,2.11,2.11,0,0,1-1.68-.82,3.83,3.83,0,0,1-.7-2.54,4,4,0,0,1,.74-2.61Zm13.53,7h1.58a3.27,3.27,0,0,1-.38-1.07,19.94,19.94,0,0,1-.1-2.66v-2a8.3,8.3,0,0,0-.08-1.39,2.27,2.27,0,0,0-.46-1,2.54,2.54,0,0,0-1-.67,5.28,5.28,0,0,0-1.85-.27,5.91,5.91,0,0,0-2,.31,2.91,2.91,0,0,0-1.33.9A3.59,3.59,0,0,0,196,85l1.47.2a2.32,2.32,0,0,1,.75-1.32,2.65,2.65,0,0,1,1.57-.37,2.54,2.54,0,0,1,1.72.51,1.67,1.67,0,0,1,.42,1.29v.4a14.28,14.28,0,0,1-2.69.52,10.25,10.25,0,0,0-1.34.22,3.56,3.56,0,0,0-1.08.5,2.4,2.4,0,0,0-.78.86,2.43,2.43,0,0,0-.3,1.2,2.32,2.32,0,0,0,.79,1.82,3.2,3.2,0,0,0,2.25.72,4.79,4.79,0,0,0,1.66-.29,5.59,5.59,0,0,0,1.61-1,3.47,3.47,0,0,0,.3,1.1Zm-.42-3.91a3.52,3.52,0,0,1-.25,1.51,2.36,2.36,0,0,1-1,1,3.15,3.15,0,0,1-1.55.38,2,2,0,0,1-1.34-.4,1.29,1.29,0,0,1-.45-1,1.26,1.26,0,0,1,.21-.71,1.25,1.25,0,0,1,.59-.49,6,6,0,0,1,1.32-.3,11.55,11.55,0,0,0,2.46-.57v.55Zm15.69,3.91V90h-4.11c-.59,0-1.22,0-1.9.08l.93-1,4.81-5.64v-1h-7.26v1.22h3.62c.49,0,1.06,0,1.7-.05l-5.66,6.5v1.22Zm7.6,0h1.58a3.54,3.54,0,0,1-.39-1.07,22.84,22.84,0,0,1-.09-2.66v-2a8.3,8.3,0,0,0-.08-1.39,2.28,2.28,0,0,0-.47-1,2.43,2.43,0,0,0-1-.67,5.32,5.32,0,0,0-1.85-.27,5.91,5.91,0,0,0-2,.31,2.91,2.91,0,0,0-1.33.9,3.59,3.59,0,0,0-.66,1.53l1.47.2a2.27,2.27,0,0,1,.75-1.32,2.65,2.65,0,0,1,1.57-.37,2.54,2.54,0,0,1,1.72.51,1.67,1.67,0,0,1,.42,1.29c0,.06,0,.19,0,.4a14.14,14.14,0,0,1-2.68.52,10,10,0,0,0-1.34.22,3.73,3.73,0,0,0-1.09.5,2.29,2.29,0,0,0-.77.86,2.43,2.43,0,0,0-.3,1.2,2.32,2.32,0,0,0,.79,1.82,3.2,3.2,0,0,0,2.25.72,4.79,4.79,0,0,0,1.66-.29,5.59,5.59,0,0,0,1.61-1,3.23,3.23,0,0,0,.3,1.1Zm-.43-3.91a3.71,3.71,0,0,1-.24,1.51,2.36,2.36,0,0,1-1,1,3.18,3.18,0,0,1-1.55.38,2,2,0,0,1-1.34-.4,1.29,1.29,0,0,1-.45-1,1.26,1.26,0,0,1,.21-.71,1.2,1.2,0,0,1,.59-.49,5.82,5.82,0,0,1,1.31-.3,11.25,11.25,0,0,0,2.46-.57v.55Zm9.3,6.8a4.23,4.23,0,0,0,2.57.72,4.56,4.56,0,0,0,2.25-.51,3.09,3.09,0,0,0,1.34-1.36,7.36,7.36,0,0,0,.42-3V82.43h-1.39V83.5a3.17,3.17,0,0,0-2.59-1.27,3.63,3.63,0,0,0-2.06.58,3.77,3.77,0,0,0-1.33,1.67,5.82,5.82,0,0,0-.46,2.34,5.11,5.11,0,0,0,1,3.18,3.37,3.37,0,0,0,2.84,1.32,3.12,3.12,0,0,0,2.46-1.16,9.12,9.12,0,0,1-.11,1.93,2,2,0,0,1-.77,1.17,2.68,2.68,0,0,1-1.61.42,2.48,2.48,0,0,1-1.53-.42,1.43,1.43,0,0,1-.52-1l-1.46-.21a2.4,2.4,0,0,0,1,2.15Zm1-9.92a2.19,2.19,0,0,1,1.71-.81,2.22,2.22,0,0,1,1.74.82,3.64,3.64,0,0,1,.73,2.47,3.71,3.71,0,0,1-.71,2.5,2.18,2.18,0,0,1-1.74.8,2.24,2.24,0,0,1-1.74-.8,3.89,3.89,0,0,1-.69-2.55,3.63,3.63,0,0,1,.7-2.43Zm9.35,7V86.67a5.76,5.76,0,0,1,.25-1.76,1.64,1.64,0,0,1,.56-.83,1.42,1.42,0,0,1,.89-.29,2.08,2.08,0,0,1,1.1.32l.52-1.4a3,3,0,0,0-1.55-.48,1.65,1.65,0,0,0-1,.3,3.78,3.78,0,0,0-1,1.25V82.43h-1.36v8.89Zm10.32,0h1.57a3.8,3.8,0,0,1-.38-1.07,22.84,22.84,0,0,1-.09-2.66v-2a8.3,8.3,0,0,0-.08-1.39,2.28,2.28,0,0,0-.47-1,2.43,2.43,0,0,0-1-.67,5.32,5.32,0,0,0-1.85-.27,5.91,5.91,0,0,0-2,.31,2.91,2.91,0,0,0-1.33.9,3.59,3.59,0,0,0-.66,1.53l1.47.2a2.27,2.27,0,0,1,.75-1.32,2.65,2.65,0,0,1,1.57-.37,2.54,2.54,0,0,1,1.72.51,1.67,1.67,0,0,1,.42,1.29c0,.06,0,.19,0,.4a14.14,14.14,0,0,1-2.68.52,10,10,0,0,0-1.34.22,3.62,3.62,0,0,0-1.09.5,2.29,2.29,0,0,0-.77.86,2.43,2.43,0,0,0-.3,1.2,2.32,2.32,0,0,0,.79,1.82,3.2,3.2,0,0,0,2.25.72,4.79,4.79,0,0,0,1.66-.29,5.72,5.72,0,0,0,1.61-1,3,3,0,0,0,.3,1.1Zm-.43-3.91a3.71,3.71,0,0,1-.24,1.51,2.36,2.36,0,0,1-1,1,3.18,3.18,0,0,1-1.55.38,2,2,0,0,1-1.34-.4,1.29,1.29,0,0,1-.45-1,1.33,1.33,0,0,1,.2-.71,1.27,1.27,0,0,1,.6-.49,5.82,5.82,0,0,1,1.31-.3,11.25,11.25,0,0,0,2.46-.57v.55Zm9.53-4a3,3,0,0,0-2.45-1.22,3.56,3.56,0,0,0-2,.58,3.52,3.52,0,0,0-1.33,1.66,6.42,6.42,0,0,0-.44,2.41,5.62,5.62,0,0,0,.49,2.42,3.89,3.89,0,0,0,1.38,1.63,3.49,3.49,0,0,0,2,.59A2.76,2.76,0,0,0,264,90.2v1.12h1.4V81.12h1.21V80h-1.21v-1h-1.5v1H261v1.11h2.9v2.33Zm-4,.85a2.08,2.08,0,0,1,1.68-.82,2.15,2.15,0,0,1,1.73.85A4.17,4.17,0,0,1,264,87a3.67,3.67,0,0,1-.7,2.46,2.11,2.11,0,0,1-1.67.81,2.17,2.17,0,0,1-1.7-.84,3.89,3.89,0,0,1-.72-2.56,4,4,0,0,1,.67-2.58Zm14,7h1.57a3.51,3.51,0,0,1-.38-1.07,22.84,22.84,0,0,1-.09-2.66v-2a8.3,8.3,0,0,0-.08-1.39,2.39,2.39,0,0,0-.47-1,2.43,2.43,0,0,0-1-.67,5.36,5.36,0,0,0-1.85-.27,5.91,5.91,0,0,0-2,.31,2.86,2.86,0,0,0-1.33.9,3.59,3.59,0,0,0-.66,1.53l1.47.2a2.27,2.27,0,0,1,.75-1.32,2.65,2.65,0,0,1,1.57-.37A2.5,2.5,0,0,1,273,84a1.63,1.63,0,0,1,.43,1.29c0,.06,0,.19,0,.4a14.14,14.14,0,0,1-2.68.52,10,10,0,0,0-1.34.22,3.51,3.51,0,0,0-1.09.5,2.4,2.4,0,0,0-.78.86,2.53,2.53,0,0,0-.29,1.2A2.35,2.35,0,0,0,268,90.8a3.25,3.25,0,0,0,2.26.72,4.79,4.79,0,0,0,1.66-.29,5.72,5.72,0,0,0,1.61-1,3,3,0,0,0,.3,1.1Zm-.43-3.91a3.71,3.71,0,0,1-.24,1.51,2.33,2.33,0,0,1-1,1,3.12,3.12,0,0,1-1.55.38,1.94,1.94,0,0,1-1.33-.4,1.3,1.3,0,0,1-.46-1,1.29,1.29,0,0,1,.81-1.2,5.68,5.68,0,0,1,1.31-.3,11.25,11.25,0,0,0,2.46-.57v.55Zm5.37,3.91V86.46a3,3,0,0,1,.7-2.31,2.42,2.42,0,0,1,1.66-.62,2,2,0,0,1,1.05.28,1.39,1.39,0,0,1,.62.72,4,4,0,0,1,.18,1.38v5.41h1.5V85.85a8.3,8.3,0,0,0-.08-1.46,2.89,2.89,0,0,0-.47-1.12,2.29,2.29,0,0,0-1-.75,3.57,3.57,0,0,0-1.47-.29,3.2,3.2,0,0,0-2.83,1.46V82.43h-1.36v8.89ZM292,89.85a2.29,2.29,0,0,1-1.41.43,2.46,2.46,0,0,1-1.86-.78,3.41,3.41,0,0,1-.83-2.24h6.63c0-.18,0-.31,0-.4a4.85,4.85,0,0,0-1.13-3.42,3.82,3.82,0,0,0-2.92-1.21,3.89,3.89,0,0,0-3,1.24A4.89,4.89,0,0,0,286.29,87a4.67,4.67,0,0,0,1.15,3.37,4.62,4.62,0,0,0,5.63.45,3.83,3.83,0,0,0,1.37-2.12l-1.56-.19a2.93,2.93,0,0,1-.93,1.39Zm-3.23-5.69a2.39,2.39,0,0,1,1.74-.69,2.31,2.31,0,0,1,1.87.87A3,3,0,0,1,292.9,86h-5a2.73,2.73,0,0,1,.79-1.86Z"/><rect class="cls-2" x="4.94" y="4.9" width="134.65" height="90.19"/><polyline class="cls-3" points="72.26 16.1 73.35 19.51 76.92 19.49 74.02 21.58 75.14 24.98 72.26 22.86 69.38 24.98 70.5 21.58 67.59 19.49 71.17 19.51 72.26 16.1"/><polyline class="cls-3" points="72.26 75.02 73.35 78.43 76.92 78.41 74.02 80.5 75.14 83.9 72.26 81.79 69.38 83.9 70.5 80.5 67.59 78.41 71.17 78.43 72.26 75.02"/><polyline class="cls-3" points="57.61 20.02 58.7 23.43 62.27 23.41 59.37 25.5 60.49 28.9 57.61 26.78 54.72 28.9 55.84 25.5 52.94 23.41 56.51 23.43 57.61 20.02"/><polyline class="cls-3" points="46.81 30.83 47.91 34.24 51.48 34.22 48.58 36.31 49.7 39.7 46.81 37.59 43.93 39.71 45.05 36.31 42.15 34.22 45.72 34.24 46.81 30.83"/><polyline class="cls-3" points="42.84 45.52 43.93 48.93 47.5 48.92 44.6 51 45.72 54.4 42.84 52.29 39.95 54.4 41.07 51 38.17 48.92 41.75 48.93 42.84 45.52"/><polyline class="cls-3" points="46.77 60.22 47.86 63.63 51.44 63.62 48.54 65.7 49.66 69.1 46.77 66.98 43.89 69.1 45.01 65.7 42.11 63.62 45.68 63.63 46.77 60.22"/><polyline class="cls-3" points="57.61 71.03 58.7 74.44 62.27 74.42 59.37 76.51 60.49 79.91 57.61 77.79 54.72 79.91 55.84 76.51 52.94 74.42 56.51 74.44 57.61 71.03"/><polyline class="cls-3" points="86.93 20.02 85.84 23.43 82.26 23.41 85.16 25.5 84.04 28.9 86.93 26.78 89.81 28.9 88.69 25.5 91.59 23.41 88.02 23.43 86.93 20.02"/><polyline class="cls-3" points="97.72 30.83 96.63 34.24 93.05 34.22 95.96 36.31 94.84 39.7 97.72 37.59 100.6 39.71 99.48 36.31 102.39 34.22 98.81 34.24 97.72 30.83"/><polyline class="cls-3" points="101.7 45.52 100.61 48.93 97.03 48.92 99.93 51 98.81 54.4 101.7 52.29 104.58 54.4 103.46 51 106.36 48.92 102.79 48.93 101.7 45.52"/><polyline class="cls-3" points="97.76 60.22 96.67 63.63 93.09 63.62 96 65.7 94.88 69.1 97.76 66.98 100.64 69.1 99.52 65.7 102.43 63.62 98.85 63.63 97.76 60.22"/><polyline class="cls-3" points="86.93 71.03 85.84 74.44 82.26 74.42 85.16 76.51 84.04 79.91 86.93 77.79 89.81 79.91 88.69 76.51 91.59 74.42 88.02 74.44 86.93 71.03"/></svg>