<svg xmlns="http://www.w3.org/2000/svg" viewBox="0 0 360 150"><defs><style>.cls-1{fill:#fff;}.cls-2{fill:#000200;}</style></defs><title>faktograf-logo</title><g id="Layer_1" data-name="Layer 1"><polygon class="cls-1" points="360 52.05 360 52.05 360 52.05 348.56 52.05 348.56 54.77 357.29 54.77 357.29 62.84 348.56 62.84 348.56 65.56 357.29 65.56 357.29 73.64 348.56 73.64 348.56 76.36 357.29 76.36 357.29 84.44 348.56 84.44 348.56 87.16 357.29 87.16 357.29 95.23 348.56 95.23 348.56 97.95 360 97.95 360 97.95 360 52.05"/><polygon class="cls-2" points="337.55 58.96 337.55 52.05 314.44 52.05 314.44 97.95 322.49 97.95 322.49 78.46 334.31 78.46 334.31 71.54 322.49 71.54 322.49 58.96 337.55 58.96"/><path class="cls-2" d="M42.34,95.35V97.9h-8V95.35a77.31,77.31,0,0,1,2.28-16.59l6-26.6h9.18l6,26.6a77.31,77.31,0,0,1,2.28,16.59V97.9h-8V95.35a72.54,72.54,0,0,0-.43-7.53H42.74A75,75,0,0,0,42.34,95.35Zm4.88-33.87L43.7,80.93h7Z"/><path class="cls-2" d="M82.9,52.16V71.24l1.64-2.44A37.61,37.61,0,0,0,90.7,53.2l.17-1h8l-.23,1.53a43.53,43.53,0,0,1-7,17.84A67.41,67.41,0,0,1,100,95.87l.28,2h-8L92,96.31Q90.13,84,86.07,77.2L82.9,81.75V97.9h-8V52.16Z"/><path class="cls-2" d="M139.24,59.05h-8.51V97.9h-8V59.05h-8.52V52.16h25.06Z"/><path class="cls-2" d="M176.86,83.22q0,8.66-3.26,12a12.65,12.65,0,0,1-17,0q-3.26-3.3-3.26-12V66.81q0-8.66,3.26-12a12.59,12.59,0,0,1,17,0q3.26,3.31,3.26,12Zm-8,1.15V65.66a14.84,14.84,0,0,0-.75-5.57,3,3,0,0,0-3-1.68,2.93,2.93,0,0,0-3,1.67,15.36,15.36,0,0,0-.72,5.58V84.37a14.73,14.73,0,0,0,.75,5.54,3,3,0,0,0,3,1.68,2.93,2.93,0,0,0,3-1.67A15.24,15.24,0,0,0,168.83,84.37Z"/><path class="cls-2" d="M217.35,83.22q0,8.66-3.26,12a12.42,12.42,0,0,1-16.86,0q-3.27-3.3-3.27-12V66.81q0-8.66,3.27-12a11.3,11.3,0,0,1,8.43-3.32,12.47,12.47,0,0,1,11.11,6.25l-6,3.88q-1.85-3.24-4.84-3.24A3.2,3.2,0,0,0,203,60.09q-1,1.66-1,5.73V84.39a14.33,14.33,0,0,0,.76,5.52,2.92,2.92,0,0,0,2.95,1.68,2.84,2.84,0,0,0,2.9-1.66,15.24,15.24,0,0,0,.72-5.55v-5.5h-2.74V72h10.77Z"/><path class="cls-2" d="M259,97.9h-8l-.11-1.65Q250,83.5,246.14,78.1h-3.2V97.9h-8V52.16H246.6q5.49,0,8.45,3.16t3,10q0,8.41-5.11,11.34,5.19,7.08,6,19.26Zm-9-32.63a9.63,9.63,0,0,0-.88-4.72c-.59-1-1.73-1.5-3.41-1.5h-2.75V71.21h2.75c1.68,0,2.82-.5,3.41-1.5A8.9,8.9,0,0,0,250,65.27Z"/><path class="cls-2" d="M280.27,95.35V97.9h-8V95.35a77.31,77.31,0,0,1,2.28-16.59l6-26.6h9.18l6,26.6a77.31,77.31,0,0,1,2.28,16.59V97.9h-8V95.35a69.87,69.87,0,0,0-.43-7.53h-8.93C280.41,90.49,280.27,93,280.27,95.35Zm4.88-33.87-3.52,19.45h7Z"/><polygon class="cls-2" points="23.12 58.96 23.12 52.05 0 52.05 0 97.95 8.05 97.95 8.05 78.46 19.87 78.46 19.87 71.54 8.05 71.54 8.05 58.96 23.12 58.96"/></g></svg>