<?xml version="1.0" encoding="utf-8"?>
<!-- Generator: Adobe Illustrator 18.0.0, SVG Export Plug-In . SVG Version: 6.00 Build 0)  -->
<!DOCTYPE svg PUBLIC "-//W3C//DTD SVG 1.1//EN" "http://www.w3.org/Graphics/SVG/1.1/DTD/svg11.dtd">
<svg version="1.1" id="Layer_1" xmlns="http://www.w3.org/2000/svg" xmlns:xlink="http://www.w3.org/1999/xlink" x="0px" y="0px"
	 viewBox="0 372 1440 336" enable-background="new 0 372 1440 336" xml:space="preserve">
<g id="bg">
	<rect x="359.8" y="376" display="none" fill="#E52620" width="801.1" height="293.1"/>
</g>
<g id="Layer_1_1_">
	<rect y="372" fill="#E30613" width="1440" height="336"/>
	<polygon fill="#FFFFFF" points="1356.9,456.9 1356.9,456.9 1356.9,456.9 1316.4,456.9 1316.4,466.6 1347.3,466.6 1347.3,495.1 
		1316.4,495.1 1316.4,504.8 1347.3,504.8 1347.3,533.3 1316.4,533.3 1316.4,543 1347.3,543 1347.3,571.5 1316.4,571.5 1316.4,581.2 
		1347.3,581.2 1347.3,609.7 1316.4,609.7 1316.4,619.4 1356.9,619.4 1356.9,619.4 	"/>
	<polygon fill="#1D1D1B" points="1277.5,481.4 1277.5,456.9 1195.7,456.9 1195.7,619.3 1224.2,619.3 1224.2,550.4 1266,550.4 
		1266,525.9 1224.2,525.9 1224.2,481.4 	"/>
	<path fill="#1D1D1B" d="M232.9,610.2v9h-28.4v-9c0-15.6,2.7-35.1,8.1-58.7l21.4-94.1h32.5l21.4,94.1c5.4,23.6,8.1,43.1,8.1,58.7v9
		h-28.4v-9c0-8.3-0.5-17.2-1.5-26.6h-31.6C233.4,592.9,232.9,601.8,232.9,610.2z M250.2,490.3l-12.5,68.8h24.9L250.2,490.3z"/>
	<path fill="#1D1D1B" d="M376.4,457.3v67.5l5.8-8.6c11.6-17.1,18.8-35.5,21.8-55.2l0.6-3.7H433l-0.8,5.4
		c-3.5,22.7-11.9,43.7-24.9,63.1c15,25.6,24.9,54.3,29.6,86.2l1,7.2h-28.4l-0.8-5.6c-4.5-29.1-11.5-51.6-21.1-67.6L376.4,562v57.2
		H348V457.3H376.4z"/>
	<path fill="#1D1D1B" d="M575.8,481.7h-30.1v137.5h-28.4V481.7h-30.1v-24.4h88.7V481.7z"/>
	<path fill="#1D1D1B" d="M708.9,567.2c0,20.4-3.8,34.5-11.5,42.3c-7.7,7.8-17.7,11.7-30.1,11.7c-12.4,0-22.4-3.9-30.1-11.7
		c-7.7-7.8-11.5-21.9-11.5-42.3v-58.1c0-20.4,3.8-34.5,11.5-42.4c7.7-7.8,17.7-11.7,30.1-11.7c12.4,0,22.4,3.9,30.1,11.7
		c7.7,7.8,11.5,21.9,11.5,42.4V567.2z M680.5,571.3v-66.2c0-9.2-0.9-15.7-2.7-19.7c-1.8-4-5.3-5.9-10.7-5.9c-5.4,0-8.9,2-10.6,5.9
		c-1.7,3.9-2.6,10.5-2.6,19.8v66.2c0,9.1,0.9,15.6,2.7,19.6c1.8,4,5.3,5.9,10.7,5.9c5.4,0,8.9-2,10.6-5.9
		C679.6,587,680.5,580.5,680.5,571.3z"/>
	<path fill="#1D1D1B" d="M852.2,567.2c0,20.4-3.8,34.5-11.5,42.3c-7.7,7.8-17.6,11.7-29.8,11.7c-12.2,0-22.1-3.9-29.8-11.7
		c-7.7-7.8-11.5-21.9-11.5-42.3v-58.1c0-20.4,3.8-34.5,11.5-42.4c7.7-7.8,17.6-11.7,29.8-11.7c16.9,0,30,7.4,39.3,22.1l-21.4,13.7
		c-4.3-7.6-10-11.5-17.1-11.5c-4.5,0-8,2-10.3,5.9c-2.3,4-3.5,10.7-3.5,20.3v65.7c0,9.1,0.9,15.6,2.7,19.5c1.8,4,5.3,5.9,10.4,5.9
		c5.2,0,8.6-2,10.3-5.9s2.5-10.5,2.5-19.6v-19.5h-9.7v-24.4h38.1L852.2,567.2L852.2,567.2z"/>
	<path fill="#1D1D1B" d="M999.5,619.2h-28.4l-0.4-5.8c-1.9-30.1-7.5-51.5-16.7-64.2h-11.3v70.1h-28.4V457.3h41.4
		c12.9,0,22.9,3.7,29.9,11.2c7,7.5,10.5,19.2,10.5,35.2c0,19.9-6,33.2-18.1,40.1c12.3,16.7,19.3,39.4,21.1,68.1L999.5,619.2z
		 M967.6,503.7c0-7.6-1-13.2-3.1-16.7c-2.1-3.5-6.1-5.3-12.1-5.3h-9.7v43h9.7c5.9,0,10-1.8,12.1-5.3
		C966.6,515.9,967.6,510.6,967.6,503.7z"/>
	<path fill="#1D1D1B" d="M1074.8,610.2v9h-28.4v-9c0-15.6,2.7-35.1,8.1-58.7l21.4-94.1h32.5l21.4,94.1c5.4,23.6,8.1,43.1,8.1,58.7v9
		h-28.4v-9c0-8.3-0.5-17.2-1.5-26.6h-31.6C1075.3,592.9,1074.8,601.8,1074.8,610.2z M1092.1,490.3l-12.5,68.8h24.9L1092.1,490.3z"/>
	<polygon fill="#1D1D1B" points="164.9,481.4 164.9,456.9 83.1,456.9 83.1,619.3 111.6,619.3 111.6,550.4 153.4,550.4 153.4,525.9 
		111.6,525.9 111.6,481.4 	"/>
</g>
<g id="Layer_2">
</g>
</svg>
